<svg width="20" height="20" viewBox="0 0 20 20" fill="none" xmlns="http://www.w3.org/2000/svg">
<path d="M16.8001 6.624C16.2745 5.57202 15.513 4.65571 14.5749 3.94658C13.6368 3.23746 12.5475 2.75471 11.3921 2.536H11.2561C10.8418 2.45629 10.4218 2.4108 10.0001 2.4H9.36007C9.14407 2.4 8.94407 2.44 8.73607 2.48H8.60807C6.86526 2.80415 5.29083 3.72794 4.15772 5.09122C3.02462 6.45449 2.4043 8.17131 2.4043 9.944C2.4043 11.7167 3.02462 13.4335 4.15772 14.7968C5.29083 16.1601 6.86526 17.0839 8.60807 17.408H8.74407C9.57859 17.5437 10.4296 17.5437 11.2641 17.408H11.3921C12.5386 17.1902 13.6194 16.711 14.5506 16.0077C15.4819 15.3044 16.2384 14.3959 16.7616 13.3527C17.2847 12.3095 17.5603 11.1598 17.567 9.99285C17.5737 8.82588 17.3112 7.67308 16.8001 6.624ZM14.0241 12.8C14.2399 12.0168 14.3661 11.2117 14.4001 10.4H16.8001C16.7516 11.2295 16.5509 12.0431 16.2081 12.8H14.0241ZM3.81607 12.8C3.46497 12.0447 3.25615 11.2311 3.20007 10.4H5.60007C5.62877 11.2111 5.74954 12.0162 5.96007 12.8H3.81607ZM5.97607 7.2C5.76021 7.98317 5.63406 8.78834 5.60007 9.6H3.20007C3.24858 8.77047 3.44925 7.95694 3.79207 7.2H5.97607ZM9.00007 3.272H9.60007V6.4H7.08807C7.52803 5.24883 8.17616 4.18849 9.00007 3.272ZM13.1921 7.2C13.4263 7.98016 13.5634 8.78626 13.6001 9.6H10.4001V7.2H13.1921ZM10.4001 6.4V3.2C10.6001 3.2 10.8081 3.2 11.0001 3.248C11.8266 4.17154 12.4749 5.24025 12.9121 6.4H10.4001ZM9.60007 7.2V9.6H6.40007C6.43165 8.78694 6.56331 7.98086 6.79207 7.2H9.60007ZM6.40007 10.4H9.60007V12.8H6.80807C6.57381 12.0198 6.43678 11.2137 6.40007 10.4ZM9.60007 13.6V16.8C9.40007 16.8 9.19207 16.8 9.00007 16.752C8.1735 15.8285 7.52523 14.7598 7.08807 13.6H9.60007ZM11.0001 16.72C10.8081 16.72 10.6001 16.72 10.4001 16.768V13.6H12.9121C12.4714 14.7484 11.8233 15.806 11.0001 16.72ZM10.4001 12.8V10.4H13.6001C13.5685 11.2131 13.4368 12.0191 13.2081 12.8H10.4001ZM14.4001 9.6C14.3714 8.78895 14.2506 7.98378 14.0401 7.2H16.2001C16.5457 7.95641 16.749 8.76996 16.8001 9.6H14.4001ZM15.7601 6.4H13.7681C13.4167 5.40479 12.9207 4.46673 12.2961 3.616C13.729 4.13149 14.9484 5.11148 15.7601 6.4ZM7.70407 3.616C7.07943 4.46673 6.58344 5.40479 6.23207 6.4H4.24007C5.05221 5.11189 6.27141 4.13203 7.70407 3.616ZM4.24007 13.6H6.23207C6.58344 14.5952 7.07943 15.5333 7.70407 16.384C6.27111 15.8685 5.05175 14.8885 4.24007 13.6ZM12.2961 16.384C12.9207 15.5333 13.4167 14.5952 13.7681 13.6H15.7601C14.9479 14.8881 13.7287 15.868 12.2961 16.384Z" fill="black"/>
</svg>
