<svg width="20" height="20" viewBox="0 0 20 20" fill="none" xmlns="http://www.w3.org/2000/svg">
<path d="M16.7999 6.624C16.2744 5.57202 15.5129 4.65571 14.5748 3.94658C13.6367 3.23746 12.5474 2.75471 11.3919 2.536H11.2559C10.8417 2.45629 10.4216 2.4108 9.99995 2.4H9.35995C9.14395 2.4 8.94395 2.44 8.73595 2.48H8.60795C6.86514 2.80415 5.2907 3.72794 4.1576 5.09122C3.0245 6.45449 2.40417 8.17131 2.40417 9.944C2.40417 11.7167 3.0245 13.4335 4.1576 14.7968C5.2907 16.1601 6.86514 17.0839 8.60795 17.408H8.74395C9.57847 17.5437 10.4294 17.5437 11.2639 17.408H11.3919C12.5384 17.1902 13.6193 16.711 14.5505 16.0077C15.4817 15.3044 16.2383 14.3959 16.7614 13.3527C17.2846 12.3095 17.5602 11.1598 17.5669 9.99285C17.5735 8.82588 17.3111 7.67308 16.7999 6.624ZM14.0239 12.8C14.2398 12.0168 14.366 11.2117 14.3999 10.4H16.7999C16.7514 11.2295 16.5508 12.0431 16.2079 12.8H14.0239ZM3.81595 12.8C3.46485 12.0447 3.25603 11.2311 3.19995 10.4H5.59995C5.62865 11.2111 5.74942 12.0162 5.95995 12.8H3.81595ZM5.97595 7.2C5.76008 7.98317 5.63394 8.78834 5.59995 9.6H3.19995C3.24846 8.77047 3.44913 7.95694 3.79195 7.2H5.97595ZM8.99995 3.272H9.59995V6.4H7.08795C7.5279 5.24883 8.17604 4.18849 8.99995 3.272ZM13.1919 7.2C13.4262 7.98016 13.5632 8.78626 13.5999 9.6H10.3999V7.2H13.1919ZM10.3999 6.4V3.2C10.5999 3.2 10.8079 3.2 10.9999 3.248C11.8265 4.17154 12.4748 5.24025 12.9119 6.4H10.3999ZM9.59995 7.2V9.6H6.39995C6.43153 8.78694 6.56319 7.98086 6.79195 7.2H9.59995ZM6.39995 10.4H9.59995V12.8H6.80795C6.57369 12.0198 6.43666 11.2137 6.39995 10.4ZM9.59995 13.6V16.8C9.39995 16.8 9.19195 16.8 8.99995 16.752C8.17338 15.8285 7.5251 14.7598 7.08795 13.6H9.59995ZM10.9999 16.72C10.8079 16.72 10.5999 16.72 10.3999 16.768V13.6H12.9119C12.4713 14.7484 11.8232 15.806 10.9999 16.72ZM10.3999 12.8V10.4H13.5999C13.5684 11.2131 13.4367 12.0191 13.2079 12.8H10.3999ZM14.3999 9.6C14.3713 8.78895 14.2505 7.98378 14.0399 7.2H16.1999C16.5455 7.95641 16.7489 8.76996 16.7999 9.6H14.3999ZM15.7599 6.4H13.7679C13.4166 5.40479 12.9206 4.46673 12.2959 3.616C13.7289 4.13149 14.9483 5.11148 15.7599 6.4ZM7.70395 3.616C7.0793 4.46673 6.58332 5.40479 6.23195 6.4H4.23995C5.05209 5.11189 6.27129 4.13203 7.70395 3.616ZM4.23995 13.6H6.23195C6.58332 14.5952 7.0793 15.5333 7.70395 16.384C6.27099 15.8685 5.05163 14.8885 4.23995 13.6ZM12.2959 16.384C12.9206 15.5333 13.4166 14.5952 13.7679 13.6H15.7599C14.9478 14.8881 13.7286 15.868 12.2959 16.384Z" fill="white"/>
</svg>
