<svg width="28" height="28" viewBox="0 0 28 28" fill="none" xmlns="http://www.w3.org/2000/svg">
<path fill-rule="evenodd" clip-rule="evenodd" d="M14.0013 12.2507C16.2565 12.2507 18.0846 10.4225 18.0846 8.16732C18.0846 5.91216 16.2565 4.08398 14.0013 4.08398C11.7461 4.08398 9.91797 5.91216 9.91797 8.16732C9.91797 10.4225 11.7461 12.2507 14.0013 12.2507Z" stroke="#1A1616" stroke-linecap="round" stroke-linejoin="round"/>
<path fill-rule="evenodd" clip-rule="evenodd" d="M14.0014 0.583984C18.4185 0.584629 21.9989 4.16557 21.9989 8.58265C21.9989 12.3335 16.2332 21.6318 14.4926 24.3525C14.3853 24.5199 14.2002 24.6211 14.0014 24.6211C13.8026 24.6211 13.6175 24.5199 13.5102 24.3525C11.7696 21.6318 6.00391 12.3358 6.00391 8.58265C6.0036 6.46138 6.84605 4.42689 8.34591 2.92681C9.84576 1.42674 11.8801 0.583984 14.0014 0.583984V0.583984Z" stroke="#1A1616" stroke-linecap="round" stroke-linejoin="round"/>
<path d="M19.834 22.9844C24.3233 23.3624 27.4173 24.1615 27.4173 25.0844C27.4173 26.3735 21.4113 27.4177 14.0007 27.4177C6.58998 27.4177 0.583984 26.3735 0.583984 25.0844C0.583984 24.1627 3.65815 23.3659 8.11832 22.9844" stroke="#1A1616" stroke-linecap="round" stroke-linejoin="round"/>
</svg>
