<svg width="28" height="28" viewBox="0 0 28 28" fill="none" xmlns="http://www.w3.org/2000/svg">
<path fill-rule="evenodd" clip-rule="evenodd" d="M4.08398 2.58399C4.08398 1.47942 4.97942 0.583984 6.08398 0.583984H21.9173C23.0219 0.583984 23.9173 1.47941 23.9173 2.58398V25.4173C23.9173 26.5219 23.0219 27.4173 21.9173 27.4173H6.08399C4.97942 27.4173 4.08398 26.5219 4.08398 25.4173V2.58399Z" stroke="#1A1616" stroke-linecap="round" stroke-linejoin="round"/>
<path d="M23.9146 22.75H4.08594" stroke="#1A1616" stroke-linecap="round" stroke-linejoin="round"/>
<path d="M23.9146 5.25H4.08594" stroke="#1A1616" stroke-linecap="round" stroke-linejoin="round"/>
<path d="M14.0007 24.5C14.1617 24.5 14.2923 24.6306 14.2923 24.7917V24.7917C14.2923 24.9527 14.1617 25.0833 14.0007 25.0833V25.0833C13.8396 25.0833 13.709 24.9527 13.709 24.7917V24.7917C13.709 24.6306 13.8396 24.5 14.0007 24.5" stroke="#1A1616" stroke-linecap="round" stroke-linejoin="round"/>
<path d="M14.0007 2.91797C14.1617 2.91797 14.2923 3.04855 14.2923 3.20964V3.20964C14.2923 3.37072 14.1617 3.5013 14.0007 3.5013V3.5013C13.8396 3.5013 13.709 3.37072 13.709 3.20964V3.20964C13.709 3.04855 13.8396 2.91797 14.0007 2.91797" stroke="#1A1616" stroke-linecap="round" stroke-linejoin="round"/>
</svg>
