<svg xmlns="http://www.w3.org/2000/svg" width="729" height="551" viewBox="0 0 729 551" version="1.1"><path d="M 179.718 75.696 C 178.030 76.135, 178.038 76.327, 179.882 79.330 C 187.319 91.444, 192.020 104.820, 194.001 119.500 C 195.388 129.774, 196.502 189.496, 195.545 202.250 L 194.813 212 177.043 212 C 156.148 212, 150.491 211.122, 144.401 206.932 C 138.737 203.035, 136.995 203.574, 137.015 209.219 C 137.055 220.804, 142.895 234.822, 150.739 242.159 C 159.127 250.005, 160.354 250.384, 178.750 250.820 L 195 251.206 195 271.230 L 195 291.255 175.250 290.747 C 153.546 290.188, 151.539 289.762, 142.750 283.852 L 137 279.985 137.035 284.242 C 137.099 292.040, 139.855 304.264, 142.983 310.617 C 146.091 316.930, 152.570 323.683, 158.436 326.722 C 161.449 328.284, 176.198 329.879, 188.339 329.956 L 195.178 330 194.710 378.750 C 194.330 418.391, 193.944 428.884, 192.641 434.909 C 190.877 443.072, 187.105 451.806, 181.687 460.276 C 178.221 465.694, 178.193 465.818, 180.325 466.389 C 183.699 467.294, 288.222 467.026, 319 466.034 C 358.481 464.761, 376.679 462.463, 399.930 455.818 C 440.742 444.152, 474.327 421.245, 494.863 391.065 C 505.691 375.152, 511.947 361.921, 518.435 341.211 L 521.790 330.500 545.145 330.500 C 557.990 330.500, 570.137 330.848, 572.138 331.274 C 574.139 331.700, 577.807 333.600, 580.290 335.495 C 586.606 340.318, 587.646 338.942, 586.194 327.693 C 584.507 314.625, 581.772 308.582, 574.091 300.953 C 565.993 292.908, 563.940 292.234, 543.771 290.992 C 535.372 290.475, 528.388 290.040, 528.250 290.026 C 528.112 290.012, 528 281.493, 528 271.096 L 528 252.192 538.731 251.461 C 559.213 250.065, 573.396 252.065, 580.431 257.340 C 586.609 261.973, 586.361 262.250, 585.749 251.404 C 584.943 237.141, 582.532 231.390, 573.590 222.401 C 567.101 215.879, 565.991 215.171, 560.500 214.062 C 557.200 213.395, 547.118 212.546, 538.096 212.175 L 521.691 211.500 519 203 C 508.644 170.287, 496.238 149.827, 473.405 127.804 C 447.397 102.718, 413.942 87.257, 368 79.089 C 358.260 77.358, 349.308 76.889, 309.500 76.027 C 262.741 75.015, 183.118 74.811, 179.718 75.696 M 256.250 95.662 C 255.270 96.058, 255 108.686, 255 154.083 L 255 212 355 212 C 410 212, 454.994 211.662, 454.986 211.250 C 454.978 210.838, 453.396 204.214, 451.469 196.531 C 440.518 152.856, 419.845 125.098, 386.623 109.458 C 362.084 97.906, 341.734 95.019, 285.500 95.112 C 270.100 95.137, 256.938 95.385, 256.250 95.662 M 255 271.500 L 255 291 318.750 290.999 C 353.813 290.998, 399.712 290.700, 420.750 290.336 L 459 289.675 459 270.838 L 459 252 357 252 L 255 252 255 271.500 M 257.892 330.688 C 255.417 331.084, 255.252 331.492, 254.642 338.704 C 253.808 348.573, 253.819 394.455, 254.663 423.443 L 255.325 446.209 297.413 445.733 C 348.048 445.160, 353.147 444.531, 376 436.037 C 409.880 423.445, 436.101 394.837, 447.967 357.517 C 451.877 345.220, 455.134 331.801, 454.389 331.056 C 453.750 330.416, 261.836 330.057, 257.892 330.688" stroke="none" fill="#fafafa" fill-rule="evenodd" data-index="0" style="opacity: 1;"></path></svg>