<svg width="22" height="20" viewBox="0 0 22 20" fill="none" xmlns="http://www.w3.org/2000/svg">
<path fill-rule="evenodd" clip-rule="evenodd" d="M5.16634 5.83268C6.31693 5.83268 7.24967 4.89994 7.24967 3.74935C7.24967 2.59876 6.31693 1.66602 5.16634 1.66602C4.01575 1.66602 3.08301 2.59876 3.08301 3.74935C3.08301 4.89994 4.01575 5.83268 5.16634 5.83268Z" stroke="#474747" stroke-linecap="round" stroke-linejoin="round"/>
<path d="M13.9166 10.8321H20.1491C20.2637 10.8306 20.3739 10.8764 20.4537 10.9587C20.5335 11.041 20.5758 11.1525 20.5708 11.2671C20.3403 15.2336 17.0565 18.3321 13.0833 18.3321H8.91662C4.9434 18.3321 1.65956 15.2336 1.42912 11.2671C1.42406 11.1525 1.46641 11.041 1.5462 10.9587C1.62599 10.8764 1.73616 10.8306 1.85078 10.8321H5.99995" stroke="#474747" stroke-linecap="round" stroke-linejoin="round"/>
<path d="M3.91699 10.8332V8.74991C3.91703 8.28894 4.17076 7.8654 4.57719 7.6479C4.98362 7.43039 5.47677 7.45423 5.86033 7.70991L8.17449 9.24991C8.6064 9.53447 9.1685 9.52554 9.59116 9.22741L10.5195 8.56074C10.883 8.30113 11.3574 8.25517 11.764 8.44018C12.1706 8.62519 12.4476 9.01306 12.4907 9.45768C12.5337 9.9023 12.3363 10.3361 11.9728 10.5957L11.0437 11.2624C9.77376 12.161 8.08256 12.1881 6.78449 11.3307L6.00033 10.8332" stroke="#474747" stroke-linecap="round" stroke-linejoin="round"/>
</svg>
