<svg width="20" height="20" viewBox="0 0 20 20" fill="none" xmlns="http://www.w3.org/2000/svg">
<path d="M16.8001 6.62439C16.2745 5.5724 15.513 4.6561 14.5749 3.94697C13.6368 3.23785 12.5475 2.7551 11.3921 2.53639H11.2561C10.8418 2.45668 10.4218 2.41119 10.0001 2.40039H9.36007C9.14407 2.40039 8.94407 2.44039 8.73607 2.48039H8.60807C6.86526 2.80453 5.29083 3.72833 4.15772 5.0916C3.02462 6.45488 2.4043 8.17169 2.4043 9.94439C2.4043 11.7171 3.02462 13.4339 4.15772 14.7972C5.29083 16.1605 6.86526 17.0842 8.60807 17.4084H8.74407C9.57859 17.5441 10.4296 17.5441 11.2641 17.4084H11.3921C12.5386 17.1906 13.6194 16.7114 14.5506 16.0081C15.4819 15.3048 16.2384 14.3963 16.7616 13.3531C17.2847 12.3099 17.5603 11.1602 17.567 9.99324C17.5737 8.82627 17.3112 7.67347 16.8001 6.62439ZM14.0241 12.8004C14.2399 12.0172 14.3661 11.2121 14.4001 10.4004H16.8001C16.7516 11.2299 16.5509 12.0435 16.2081 12.8004H14.0241ZM3.81607 12.8004C3.46497 12.0451 3.25615 11.2315 3.20007 10.4004H5.60007C5.62877 11.2114 5.74954 12.0166 5.96007 12.8004H3.81607ZM5.97607 7.20039C5.76021 7.98356 5.63406 8.78873 5.60007 9.60039H3.20007C3.24858 8.77086 3.44925 7.95732 3.79207 7.20039H5.97607ZM9.00007 3.27239H9.60007V6.40039H7.08807C7.52803 5.24921 8.17616 4.18887 9.00007 3.27239ZM13.1921 7.20039C13.4263 7.98055 13.5634 8.78665 13.6001 9.60039H10.4001V7.20039H13.1921ZM10.4001 6.40039V3.20039C10.6001 3.20039 10.8081 3.20039 11.0001 3.24839C11.8266 4.17193 12.4749 5.24064 12.9121 6.40039H10.4001ZM9.60007 7.20039V9.60039H6.40007C6.43165 8.78733 6.56331 7.98125 6.79207 7.20039H9.60007ZM6.40007 10.4004H9.60007V12.8004H6.80807C6.57381 12.0202 6.43678 11.2141 6.40007 10.4004ZM9.60007 13.6004V16.8004C9.40007 16.8004 9.19207 16.8004 9.00007 16.7524C8.1735 15.8289 7.52523 14.7601 7.08807 13.6004H9.60007ZM11.0001 16.7204C10.8081 16.7204 10.6001 16.7204 10.4001 16.7684V13.6004H12.9121C12.4714 14.7488 11.8233 15.8064 11.0001 16.7204ZM10.4001 12.8004V10.4004H13.6001C13.5685 11.2135 13.4368 12.0195 13.2081 12.8004H10.4001ZM14.4001 9.60039C14.3714 8.78934 14.2506 7.98417 14.0401 7.20039H16.2001C16.5457 7.95679 16.749 8.77035 16.8001 9.60039H14.4001ZM15.7601 6.40039H13.7681C13.4167 5.40517 12.9207 4.46711 12.2961 3.61639C13.729 4.13188 14.9484 5.11187 15.7601 6.40039ZM7.70407 3.61639C7.07943 4.46711 6.58344 5.40517 6.23207 6.40039H4.24007C5.05221 5.11228 6.27141 4.13242 7.70407 3.61639ZM4.24007 13.6004H6.23207C6.58344 14.5956 7.07943 15.5337 7.70407 16.3844C6.27111 15.8689 5.05175 14.8889 4.24007 13.6004ZM12.2961 16.3844C12.9207 15.5337 13.4167 14.5956 13.7681 13.6004H15.7601C14.9479 14.8885 13.7287 15.8684 12.2961 16.3844Z" fill="black"/>
</svg>
