<svg width="24" height="24" viewBox="0 0 24 24" fill="none" xmlns="http://www.w3.org/2000/svg">
<path d="M6.7373 2.32422C6.93434 2.32422 7.1295 2.36306 7.31152 2.43848C7.49344 2.51386 7.65861 2.62443 7.79785 2.76367L10.1182 5.08398C10.4401 5.40637 10.621 5.84321 10.6211 6.29883C10.6211 6.69765 10.4828 7.08272 10.2324 7.38867L10.1182 7.51465C9.22883 8.40398 8.75941 9.78862 9.45117 11.0156L9.45215 11.0176C9.86822 11.7496 10.3826 12.4209 10.9795 13.0146V13.0156C11.5739 13.6136 12.2465 14.1283 12.9795 14.5449L12.9814 14.5459C14.1304 15.1933 15.4198 14.8227 16.3096 14.041L16.4824 13.8789C16.8049 13.5568 17.2424 13.376 17.6982 13.376C18.0969 13.3761 18.4813 13.5144 18.7871 13.7646L18.9131 13.8789L21.2334 16.1992C21.5144 16.4805 21.6729 16.8622 21.6729 17.2598C21.6727 17.6572 21.5143 18.0382 21.2334 18.3193C19.8761 19.6766 18.2391 20.6378 16.1797 20.5166C14.2309 20.4018 11.7971 19.313 8.76562 16.4424L8.15137 15.8447C4.83282 12.5257 3.60287 9.89493 3.48047 7.81641C3.35929 5.75713 4.31999 4.12044 5.67676 2.76367C5.816 2.62443 5.98117 2.51386 6.16309 2.43848C6.34511 2.36306 6.54027 2.32422 6.7373 2.32422Z" stroke="white"/>
</svg>
