<svg width="20" height="20" viewBox="0 0 20 20" fill="none" xmlns="http://www.w3.org/2000/svg">
<path d="M5.83317 8.95768H4.1665C2.14984 8.95768 1.0415 7.84935 1.0415 5.83268V4.16602C1.0415 2.14935 2.14984 1.04102 4.1665 1.04102H5.83317C7.84984 1.04102 8.95817 2.14935 8.95817 4.16602V5.83268C8.95817 7.84935 7.84984 8.95768 5.83317 8.95768ZM4.1665 2.29102C2.84984 2.29102 2.2915 2.84935 2.2915 4.16602V5.83268C2.2915 7.14935 2.84984 7.70768 4.1665 7.70768H5.83317C7.14984 7.70768 7.70817 7.14935 7.70817 5.83268V4.16602C7.70817 2.84935 7.14984 2.29102 5.83317 2.29102H4.1665Z" fill="#474747"/>
<path d="M15.8332 8.95768H14.1665C12.1498 8.95768 11.0415 7.84935 11.0415 5.83268V4.16602C11.0415 2.14935 12.1498 1.04102 14.1665 1.04102H15.8332C17.8498 1.04102 18.9582 2.14935 18.9582 4.16602V5.83268C18.9582 7.84935 17.8498 8.95768 15.8332 8.95768ZM14.1665 2.29102C12.8498 2.29102 12.2915 2.84935 12.2915 4.16602V5.83268C12.2915 7.14935 12.8498 7.70768 14.1665 7.70768H15.8332C17.1498 7.70768 17.7082 7.14935 17.7082 5.83268V4.16602C17.7082 2.84935 17.1498 2.29102 15.8332 2.29102H14.1665Z" fill="#474747"/>
<path d="M15.8332 18.9577H14.1665C12.1498 18.9577 11.0415 17.8493 11.0415 15.8327V14.166C11.0415 12.1493 12.1498 11.041 14.1665 11.041H15.8332C17.8498 11.041 18.9582 12.1493 18.9582 14.166V15.8327C18.9582 17.8493 17.8498 18.9577 15.8332 18.9577ZM14.1665 12.291C12.8498 12.291 12.2915 12.8493 12.2915 14.166V15.8327C12.2915 17.1493 12.8498 17.7077 14.1665 17.7077H15.8332C17.1498 17.7077 17.7082 17.1493 17.7082 15.8327V14.166C17.7082 12.8493 17.1498 12.291 15.8332 12.291H14.1665Z" fill="#474747"/>
<path d="M5.83317 18.9577H4.1665C2.14984 18.9577 1.0415 17.8493 1.0415 15.8327V14.166C1.0415 12.1493 2.14984 11.041 4.1665 11.041H5.83317C7.84984 11.041 8.95817 12.1493 8.95817 14.166V15.8327C8.95817 17.8493 7.84984 18.9577 5.83317 18.9577ZM4.1665 12.291C2.84984 12.291 2.2915 12.8493 2.2915 14.166V15.8327C2.2915 17.1493 2.84984 17.7077 4.1665 17.7077H5.83317C7.14984 17.7077 7.70817 17.1493 7.70817 15.8327V14.166C7.70817 12.8493 7.14984 12.291 5.83317 12.291H4.1665Z" fill="#474747"/>
</svg>
