<svg xmlns="http://www.w3.org/2000/svg" width="512" height="512" viewBox="0 0 512 512" version="1.1"><path d="" stroke="none" fill="#080404" fill-rule="evenodd"/><path d="M 247.907 2.328 C 245.015 3.855, 242.469 6.319, 240.500 9.495 L 237.500 14.336 237.174 34.906 C 236.946 49.239, 236.491 55.703, 235.674 56.223 C 235.028 56.633, 232.835 56.976, 230.801 56.985 C 224.998 57.009, 206.802 60.797, 196.819 64.059 C 152.196 78.641, 123.061 109.985, 116.472 150.500 C 114.626 161.850, 114.622 170.912, 116.457 183.087 C 123.185 227.721, 155.728 254.534, 226.250 273.548 L 237 276.446 237 340.811 L 237 405.176 232.750 404.499 C 207.606 400.496, 180.417 388.825, 159.357 372.995 C 147.670 364.211, 143.108 362.051, 136.188 362.022 C 121.720 361.962, 109.740 374.554, 109.571 390 C 109.471 399.169, 112.482 404.809, 121.500 412.342 C 151.973 437.797, 189.877 453.277, 229.696 456.529 L 237.891 457.199 238.196 478.509 L 238.500 499.820 241.595 503.660 C 243.297 505.772, 246.447 508.505, 248.595 509.734 C 255.886 513.904, 268.034 512.034, 273.702 505.868 C 278.404 500.754, 279 497.396, 279 476.032 L 279 456 282.250 455.994 C 284.038 455.991, 290 455.313, 295.500 454.488 C 358.192 445.086, 396.172 408.438, 402.021 351.705 C 403.965 332.852, 400.961 312.015, 394.093 296.708 C 383.470 273.031, 361.569 253.913, 329.838 240.619 C 319.620 236.338, 297.831 228.930, 285.250 225.460 L 279 223.736 279 167.257 L 279 110.777 282.750 111.436 C 290.271 112.757, 304.366 117.172, 313.138 120.953 C 321.173 124.418, 328.332 128.478, 345.888 139.528 C 352.323 143.578, 358.145 144.645, 364.932 143.016 C 375.443 140.495, 383.502 132.413, 386.035 121.853 C 388.573 111.274, 385.161 102.753, 375.193 94.778 C 350.472 75, 316.068 60.840, 286.700 58.357 L 279.166 57.721 278.833 36.029 L 278.500 14.337 275.500 9.496 C 271.558 3.136, 265.780 0, 258 -0 C 253.977 -0, 251.026 0.681, 247.907 2.328 M 226.075 110.087 C 207.944 113.645, 190.947 124.149, 182.939 136.746 C 175.271 148.808, 173.676 167.687, 179.346 179.275 C 185.092 191.018, 199.835 200.731, 224.453 208.990 C 231.027 211.195, 236.765 213, 237.203 213 C 237.641 213, 238 189.600, 238 161 L 238 109 234.250 109.110 C 232.188 109.170, 228.509 109.610, 226.075 110.087 M 279 347.572 L 279 405.950 282.250 405.390 C 291.997 403.712, 302.273 400.555, 309.717 396.952 C 324.743 389.679, 336.845 375.856, 340.579 361.700 C 349.536 327.746, 331.819 305.040, 285.532 291.154 L 279 289.194 279 347.572" stroke="none" fill="#040404" fill-rule="evenodd"/></svg>