<svg width="23" height="18" viewBox="0 0 23 18" fill="none" xmlns="http://www.w3.org/2000/svg">
<g clip-path="url(#clip0_7_6147)">
<path d="M0 0.5H23V17.5H0V0.5Z" fill="#012169"/>
<path d="M2.69531 0.5L11.4641 6.91042L20.1969 0.5H23V2.69583L14.375 9.03542L23 15.3396V17.5H20.125L11.5 11.1604L2.91094 17.5H0V15.375L8.58906 9.07083L0 2.76667V0.5H2.69531Z" fill="white"/>
<path d="M15.2375 10.4521L23 16.0833V17.5L13.2609 10.4521H15.2375ZM8.625 11.1604L8.84062 12.4L1.94062 17.5H0L8.625 11.1604ZM23 0.5V0.60625L14.0516 7.26458L14.1234 5.70625L21.2031 0.5H23ZM0 0.5L8.58906 6.73333H6.43281L0 1.9875V0.5Z" fill="#C8102E"/>
<path d="M8.66094 0.5V17.5H14.4109V0.5H8.66094ZM0 6.16667V11.8333H23V6.16667H0Z" fill="white"/>
<path d="M0 7.33542V10.7354H23V7.33542H0ZM9.81094 0.5V17.5H13.2609V0.5H9.81094Z" fill="#C8102E"/>
</g>
<defs>
<clipPath id="clip0_7_6147">
<rect width="23" height="17" fill="white" transform="translate(0 0.5)"/>
</clipPath>
</defs>
</svg>
