<svg xmlns="http://www.w3.org/2000/svg" width="512" height="512" viewBox="0 0 512 512" version="1.1"><path d="" stroke="none" fill="#080404" fill-rule="evenodd"/><path d="M 306.975 1.502 C 284.250 5.215, 267.221 10.485, 247.500 19.909 C 194.338 45.313, 150.149 96.192, 127.820 157.709 L 124.841 165.918 83.170 166.209 L 41.500 166.500 35.818 169.290 C 17.324 178.372, 13.877 202.713, 29.142 216.437 C 37.327 223.797, 38.626 224, 77.428 224 L 111.500 224 111.500 253.932 L 111.500 283.865 76.500 284.182 C 36.803 284.543, 36.381 284.619, 28 293 C 14.235 306.765, 17.971 329.846, 35.500 339.335 C 39.394 341.443, 40.611 341.508, 81.542 341.790 L 123.585 342.081 126.966 351.790 C 154.642 431.260, 217.939 491.242, 291.117 507.345 C 310.097 511.521, 319.204 512.330, 340.229 511.707 C 355.562 511.253, 362.054 510.602, 372 508.517 C 413.363 499.848, 451.031 479.178, 480.707 448.862 C 489.546 439.834, 492.294 434.174, 492.294 425 C 492.294 408.717, 479.903 396.464, 463.500 396.527 C 454.004 396.564, 449.057 399.005, 438.815 408.707 C 417.929 428.491, 400.333 439.400, 377.028 447.010 C 359.529 452.725, 347.634 454.381, 329 453.695 C 290.631 452.283, 257.585 437.278, 228.247 407.946 C 212.714 392.417, 201.466 376.341, 190.852 354.500 L 185.021 342.500 280.260 342 L 375.500 341.500 379.791 339.209 C 390.278 333.609, 396.595 322.622, 395.733 311.481 C 394.891 300.595, 388.460 291.385, 378.500 286.801 L 373.500 284.500 271.842 284.227 L 170.183 283.954 169.455 274.241 C 168.697 264.130, 169.478 231.538, 170.593 226.750 L 171.233 224 271.579 224 C 370.375 224, 372.010 223.968, 377.418 221.945 C 380.909 220.639, 384.562 218.215, 387.439 215.297 C 401.530 201.004, 397.423 178.397, 379 168.835 L 374.500 166.500 280.750 166.225 C 229.188 166.074, 187 165.703, 187 165.400 C 187 163.762, 199.735 140.290, 204.578 133 C 212.169 121.576, 217.361 115.260, 228.297 104.150 C 270.857 60.913, 328.567 46.907, 382.500 66.728 C 402.609 74.118, 419.798 85.279, 438.815 103.293 C 448.969 112.912, 453.952 115.359, 463.500 115.415 C 479.913 115.512, 492.294 103.366, 492.294 87.166 C 492.294 77.810, 489.599 72.221, 480.707 63.138 C 449.696 31.459, 410.729 10.664, 366.811 2.356 C 355.192 0.158, 318.417 -0.367, 306.975 1.502" stroke="none" fill="#040404" fill-rule="evenodd"/></svg>