<svg width="21" height="20" viewBox="0 0 21 20" fill="none" xmlns="http://www.w3.org/2000/svg">
<path d="M10.4951 16.0215V18.1313" stroke="#474747" stroke-width="1.3" stroke-linecap="round" stroke-linejoin="round"/>
<path d="M12.4288 13.6895C12.4288 14.7574 11.5631 15.6232 10.4952 15.6232C9.42725 15.6232 8.56152 14.7574 8.56152 13.6895C8.56152 12.6216 9.42725 11.7559 10.4952 11.7559C11.5631 11.7559 12.4288 12.6216 12.4288 13.6895Z" stroke="#474747" stroke-width="1.3" stroke-linecap="round" stroke-linejoin="round"/>
<path d="M10.4951 1.85547V8.38006" stroke="#474747" stroke-width="1.3" stroke-linecap="round" stroke-linejoin="round"/>
<path d="M4.30664 9.86719V18.1321" stroke="#474747" stroke-width="1.3" stroke-linecap="round" stroke-linejoin="round"/>
<path d="M6.24034 7.53326C6.24034 8.60118 5.37462 9.46691 4.30669 9.4669C3.23877 9.4669 2.37305 8.60118 2.37305 7.53326C2.37305 6.46533 3.23877 5.59961 4.30669 5.59961C5.37462 5.59961 6.24034 6.46533 6.24034 7.53326Z" stroke="#474747" stroke-width="1.3" stroke-linecap="round" stroke-linejoin="round"/>
<path d="M4.30664 1.85547V3.10396" stroke="#474747" stroke-width="1.3" stroke-linecap="round" stroke-linejoin="round"/>
<path d="M16.6865 9.86719V18.1321" stroke="#474747" stroke-width="1.3" stroke-linecap="round" stroke-linejoin="round"/>
<path d="M18.6203 7.53326C18.6203 8.60118 17.7545 9.46691 16.6866 9.4669C15.6187 9.4669 14.7529 8.60118 14.7529 7.53326C14.7529 6.46533 15.6187 5.59961 16.6866 5.59961C17.7545 5.59961 18.6203 6.46533 18.6203 7.53326Z" stroke="#474747" stroke-width="1.3" stroke-linecap="round" stroke-linejoin="round"/>
<path d="M16.6865 1.85547V3.10396" stroke="#474747" stroke-width="1.3" stroke-linecap="round" stroke-linejoin="round"/>
</svg>
