<svg width="20" height="20" viewBox="0 0 20 20" fill="none" xmlns="http://www.w3.org/2000/svg">
<path fill-rule="evenodd" clip-rule="evenodd" d="M2.50033 8.54102H17.5003C17.9606 8.54102 18.3337 8.91411 18.3337 9.37435V12.7077H1.66699V9.37435C1.66699 8.91411 2.04009 8.54102 2.50033 8.54102Z" stroke="#474747" stroke-linecap="round" stroke-linejoin="round"/>
<path d="M18.3337 12.707V13.5404C18.3337 14.0006 17.9606 14.3737 17.5003 14.3737H2.50033C2.04009 14.3737 1.66699 14.0006 1.66699 13.5404V12.707" stroke="#474747" stroke-linecap="round" stroke-linejoin="round"/>
<path d="M2.5 14.375V16.4583" stroke="#474747" stroke-linecap="round" stroke-linejoin="round"/>
<path d="M17.5 14.375V16.4583" stroke="#474747" stroke-linecap="round" stroke-linejoin="round"/>
<path d="M2.5 8.54102V5.20768C2.5 4.28721 3.24619 3.54102 4.16667 3.54102H15.8333C16.7538 3.54102 17.5 4.28721 17.5 5.20768V8.54102" stroke="#474747" stroke-linecap="round" stroke-linejoin="round"/>
<path d="M2.5 8.54102C2.5 7.1603 3.61929 6.04102 5 6.04102H7.5C8.88071 6.04102 10 7.1603 10 8.54102" stroke="#474747" stroke-linecap="round" stroke-linejoin="round"/>
<path d="M10 8.54102C10 7.1603 11.1193 6.04102 12.5 6.04102H15C16.3807 6.04102 17.5 7.1603 17.5 8.54102" stroke="#474747" stroke-linecap="round" stroke-linejoin="round"/>
</svg>
