<svg width="46" height="45" viewBox="0 0 46 45" fill="none" xmlns="http://www.w3.org/2000/svg">
<path opacity="0.25" d="M23 1C34.8741 1 44.5 10.6259 44.5 22.5C44.5 34.3741 34.8741 44 23 44C11.1259 44 1.5 34.3741 1.5 22.5C1.5 10.6259 11.1259 1 23 1Z" stroke="#474747" stroke-width="2"/>
<path d="M26.3679 19.9428C26.7987 19.9428 27.1479 19.5936 27.1479 19.1628C27.1479 18.732 26.7987 18.3828 26.3679 18.3828C25.9371 18.3828 25.5879 18.732 25.5879 19.1628C25.5879 19.5936 25.9371 19.9428 26.3679 19.9428Z" fill="#474747"/>
<path d="M23 19.25C24.7924 19.25 26.25 20.7076 26.25 22.5C26.25 24.2924 24.7924 25.75 23 25.75C21.2076 25.75 19.75 24.2924 19.75 22.5C19.75 20.7076 21.2076 19.25 23 19.25ZM23 20.875C22.1038 20.875 21.375 21.6038 21.375 22.5C21.375 23.3962 22.1038 24.125 23 24.125C23.8962 24.125 24.625 23.3962 24.625 22.5C24.625 21.6038 23.8962 20.875 23 20.875Z" fill="#474747"/>
<path d="M26.25 16C27.9205 16 29.5 17.5795 29.5 19.25V25.75C29.5 27.4205 27.9205 29 26.25 29H19.75C18.0795 29 16.5 27.4205 16.5 25.75V19.25C16.5 17.5795 18.0795 16 19.75 16H26.25ZM19.75 17.625C18.9903 17.625 18.125 18.4903 18.125 19.25V25.75C18.125 26.5243 18.9757 27.375 19.75 27.375H26.25C27.0097 27.375 27.875 26.5097 27.875 25.75V19.25C27.875 18.4903 27.0097 17.625 26.25 17.625H19.75Z" fill="#474747"/>
</svg>
