<svg width="40" height="40" viewBox="0 0 40 40" fill="none" xmlns="http://www.w3.org/2000/svg">
<path d="M5 18.756C5.00252 19.0797 5.1307 19.3899 5.3575 19.621L5.365 19.636L12.865 27.136C13.1008 27.3637 13.4165 27.4897 13.7443 27.4868C14.072 27.484 14.3855 27.3525 14.6173 27.1207C14.849 26.889 14.9805 26.5755 14.9833 26.2477C14.9862 25.92 14.8602 25.6042 14.6325 25.3685L9.2675 20.001H33.75C34.0815 20.001 34.3995 19.8693 34.6339 19.6349C34.8683 19.4004 35 19.0825 35 18.751C35 18.4194 34.8683 18.1015 34.6339 17.8671C34.3995 17.6327 34.0815 17.501 33.75 17.501H9.2675L14.6325 12.136C14.8602 11.9002 14.9862 11.5845 14.9833 11.2567C14.9805 10.929 14.849 10.6155 14.6173 10.3837C14.3855 10.1519 14.072 10.0205 13.7443 10.0176C13.4165 10.0148 13.1008 10.1408 12.865 10.3685L5.365 17.8685L5.3575 17.881C5.24622 17.9937 5.15792 18.127 5.0975 18.2735C5.03315 18.4244 4.99999 18.5869 5 18.751V18.756Z" fill="#1A1616"/>
</svg>
