<svg width="48" height="48" viewBox="0 0 48 48" fill="none" xmlns="http://www.w3.org/2000/svg">
<circle cx="24" cy="24" r="24" fill="#117EB8"/>
<g clip-path="url(#clip0_7_6519)">
<path d="M13 15.5556C13 14.8148 13.259 14.2037 13.777 13.7222C14.295 13.2407 14.9685 13 15.7973 13C16.6113 13 17.2699 13.237 17.7732 13.7111C18.2912 14.2 18.5502 14.837 18.5502 15.6222C18.5502 16.3333 18.2986 16.9259 17.7954 17.4C17.2774 17.8889 16.5965 18.1333 15.7529 18.1333H15.7307C14.9167 18.1333 14.2581 17.8889 13.7548 17.4C13.2516 16.9111 13 16.2963 13 15.5556ZM13.2886 35V20.1555H18.2172V35H13.2886ZM20.9479 35H25.8764V26.7111C25.8764 26.1926 25.9357 25.7926 26.0541 25.5111C26.2613 25.0074 26.5758 24.5814 26.9976 24.2333C27.4194 23.8852 27.9485 23.7111 28.5849 23.7111C30.2426 23.7111 31.0714 24.8296 31.0714 27.0666V35H36V26.4889C36 24.2963 35.482 22.6333 34.4459 21.5C33.4099 20.3667 32.0409 19.8 30.3388 19.8C28.4295 19.8 26.9421 20.6222 25.8764 22.2667V22.3111H25.8542L25.8764 22.2667V20.1555H20.9479C20.9775 20.6296 20.9923 22.1037 20.9923 24.5778C20.9923 27.0518 20.9775 30.5259 20.9479 35Z" fill="white"/>
</g>
<defs>
<clipPath id="clip0_7_6519">
<rect width="23" height="22" fill="white" transform="translate(13 13)"/>
</clipPath>
</defs>
</svg>
