<svg width="20" height="20" viewBox="0 0 20 20" fill="none" xmlns="http://www.w3.org/2000/svg">
<path d="M14.1665 17.7077H5.83317C2.7915 17.7077 1.0415 15.9577 1.0415 12.916V7.08268C1.0415 4.04102 2.7915 2.29102 5.83317 2.29102H14.1665C17.2082 2.29102 18.9582 4.04102 18.9582 7.08268V12.916C18.9582 15.9577 17.2082 17.7077 14.1665 17.7077ZM5.83317 3.54102C3.44984 3.54102 2.2915 4.69935 2.2915 7.08268V12.916C2.2915 15.2993 3.44984 16.4577 5.83317 16.4577H14.1665C16.5498 16.4577 17.7082 15.2993 17.7082 12.916V7.08268C17.7082 4.69935 16.5498 3.54102 14.1665 3.54102H5.83317Z" fill="#474747"/>
<path d="M10 13.125C8.275 13.125 6.875 11.725 6.875 10C6.875 8.275 8.275 6.875 10 6.875C11.725 6.875 13.125 8.275 13.125 10C13.125 11.725 11.725 13.125 10 13.125ZM10 8.125C8.96667 8.125 8.125 8.96667 8.125 10C8.125 11.0333 8.96667 11.875 10 11.875C11.0333 11.875 11.875 11.0333 11.875 10C11.875 8.96667 11.0333 8.125 10 8.125Z" fill="#474747"/>
<path d="M4.5835 12.7077C4.24183 12.7077 3.9585 12.4243 3.9585 12.0827V7.91602C3.9585 7.57435 4.24183 7.29102 4.5835 7.29102C4.92516 7.29102 5.2085 7.57435 5.2085 7.91602V12.0827C5.2085 12.4243 4.92516 12.7077 4.5835 12.7077Z" fill="#474747"/>
<path d="M15.4165 12.7077C15.0748 12.7077 14.7915 12.4243 14.7915 12.0827V7.91602C14.7915 7.57435 15.0748 7.29102 15.4165 7.29102C15.7582 7.29102 16.0415 7.57435 16.0415 7.91602V12.0827C16.0415 12.4243 15.7582 12.7077 15.4165 12.7077Z" fill="#474747"/>
</svg>
