<svg width="41" height="49" viewBox="0 0 41 49" fill="none" xmlns="http://www.w3.org/2000/svg">
<path d="M34.2173 5.7423C30.4279 2.04482 25.3384 -0.0171616 20.0441 0.000107603C14.5009 0.000107603 9.49069 2.19898 5.87081 5.7423C4.0148 7.54184 2.53885 9.6956 1.53041 12.076C0.521969 14.4564 0.00155569 17.0149 0 19.6001C0 25.327 5.56456 32.9955 9.1875 36.7501L20.0441 49.0001L30.625 36.7501C34.2479 32.9924 40.0912 25.327 40.0912 19.6001C40.0884 17.0148 39.5671 14.4564 38.5582 12.0761C37.5492 9.69586 36.0732 7.54211 34.2173 5.7423ZM20.0441 26.7265C19.1658 26.7282 18.2959 26.5563 17.4842 26.2209C16.6725 25.8854 15.9351 25.393 15.3142 24.7718C14.6933 24.1507 14.2013 23.413 13.8662 22.6012C13.5311 21.7894 13.3597 20.9194 13.3617 20.0411C13.3617 16.3447 16.3446 13.3618 20.0441 13.3618C23.7436 13.3618 26.7264 16.3447 26.7264 20.0411C26.7285 20.9194 26.557 21.7894 26.2219 22.6012C25.8869 23.413 25.3948 24.1507 24.7739 24.7718C24.153 25.393 23.4156 25.8854 22.6039 26.2209C21.7922 26.5563 20.9223 26.7282 20.0441 26.7265Z" fill="#1A1616"/>
</svg>
