<svg width="40" height="40" viewBox="0 0 40 40" fill="none" xmlns="http://www.w3.org/2000/svg">
<path d="M35 18.756C34.9975 19.0797 34.8693 19.3899 34.6425 19.621L34.635 19.636L27.135 27.136C26.8992 27.3637 26.5835 27.4897 26.2557 27.4868C25.928 27.484 25.6145 27.3525 25.3827 27.1207C25.151 26.889 25.0195 26.5755 25.0167 26.2477C25.0138 25.92 25.1398 25.6042 25.3675 25.3685L30.7325 20.001H6.25C5.91848 20.001 5.60054 19.8693 5.36612 19.6349C5.13169 19.4004 5 19.0825 5 18.751C5 18.4194 5.13169 18.1015 5.36612 17.8671C5.60054 17.6327 5.91848 17.501 6.25 17.501H30.7325L25.3675 12.136C25.1398 11.9002 25.0138 11.5845 25.0167 11.2567C25.0195 10.929 25.151 10.6155 25.3827 10.3837C25.6145 10.1519 25.928 10.0205 26.2557 10.0176C26.5835 10.0148 26.8992 10.1408 27.135 10.3685L34.635 17.8685L34.6425 17.881C34.7538 17.9937 34.8421 18.127 34.9025 18.2735C34.9668 18.4244 35 18.5869 35 18.751V18.756Z" fill="#1A1616"/>
</svg>
