<svg width="24" height="24" viewBox="0 0 24 24" fill="none" xmlns="http://www.w3.org/2000/svg">
<path d="M23 18.3506V6.65003C22.9991 6.49172 22.9391 6.33934 22.8317 6.22212C22.7242 6.10491 22.5769 6.03113 22.4179 6.01495L22.4015 6.0117C22.3818 6.00975 22.3641 6 22.3437 6H2.65561C2.63461 6 2.61624 6.00975 2.59589 6.0117C2.55381 6.01573 2.51225 6.024 2.47186 6.0364C2.43029 6.04781 2.39003 6.06349 2.35176 6.0832C2.31769 6.10169 2.2854 6.12324 2.25529 6.14756C2.21897 6.1754 2.18575 6.207 2.15619 6.24181C2.14372 6.25676 2.12666 6.26456 2.1155 6.28081C2.10303 6.29836 2.10107 6.31982 2.09057 6.33802C2.04675 6.41447 2.02012 6.49939 2.01247 6.58698C2.0105 6.60843 2 6.62728 2 6.64938V18.35C2 18.5224 2.06914 18.6877 2.19222 18.8096C2.31529 18.9315 2.48222 19 2.65627 19H22.3444C22.4305 19.0001 22.5158 18.9833 22.5954 18.9507C22.675 18.9181 22.7473 18.8703 22.8082 18.81C22.8691 18.7497 22.9174 18.6781 22.9503 18.5992C22.9832 18.5204 23.0001 18.4359 23 18.3506ZM20.1807 7.30007L12.4728 12.5601L4.76487 7.30007H20.1807ZM3.31189 17.7006V7.88704L12.1007 13.8849C12.21 13.9598 12.3398 13.9999 12.4728 13.9999C12.6057 13.9999 12.7355 13.9598 12.8449 13.8849L21.6875 7.85064V17.7006H3.31189Z" fill="#1A1616"/>
</svg>
