<svg width="21" height="20" viewBox="0 0 21 20" fill="none" xmlns="http://www.w3.org/2000/svg">
<g clip-path="url(#clip0_7_3695)">
<path d="M3.58333 15H6.91667C7.375 15 7.75 14.625 7.75 14.1667C7.75 13.7083 7.375 13.3333 6.91667 13.3333H3.58333C3.125 13.3333 2.75 13.7083 2.75 14.1667C2.75 14.625 3.125 15 3.58333 15ZM2.75 5.83333C2.75 6.29167 3.125 6.66667 3.58333 6.66667H16.9167C17.375 6.66667 17.75 6.29167 17.75 5.83333C17.75 5.375 17.375 5 16.9167 5H3.58333C3.125 5 2.75 5.375 2.75 5.83333ZM3.58333 10.8333H11.9167C12.375 10.8333 12.75 10.4583 12.75 10C12.75 9.54167 12.375 9.16667 11.9167 9.16667H3.58333C3.125 9.16667 2.75 9.54167 2.75 10C2.75 10.4583 3.125 10.8333 3.58333 10.8333Z" fill="#474747"/>
</g>
<defs>
<clipPath id="clip0_7_3695">
<rect width="20" height="20" fill="white" transform="translate(0.25)"/>
</clipPath>
</defs>
</svg>
