<svg width="22" height="20" viewBox="0 0 22 20" fill="none" xmlns="http://www.w3.org/2000/svg">
<path d="M2.25 13.75L3.42167 15.5075C3.73068 15.9713 4.25104 16.2499 4.80833 16.25H17.1917C17.749 16.2499 18.2693 15.9713 18.5783 15.5075L19.75 13.75" stroke="#474747" stroke-linecap="round" stroke-linejoin="round"/>
<path d="M1.41699 13.75H20.5837" stroke="#474747" stroke-linecap="round" stroke-linejoin="round"/>
<path fill-rule="evenodd" clip-rule="evenodd" d="M11 6.25C11.6904 6.25 12.25 5.69036 12.25 5C12.25 4.30964 11.6904 3.75 11 3.75C10.3096 3.75 9.75 4.30964 9.75 5C9.75 5.69036 10.3096 6.25 11 6.25Z" stroke="#474747" stroke-linecap="round" stroke-linejoin="round"/>
<path d="M3.5 13.75C3.5 9.60786 6.85786 6.25 11 6.25C15.1421 6.25 18.5 9.60786 18.5 13.75" stroke="#474747" stroke-linecap="round" stroke-linejoin="round"/>
<path d="M8.39746 9.00066C9.19475 8.56223 10.0901 8.33288 11 8.33399" stroke="#474747" stroke-linecap="round" stroke-linejoin="round"/>
</svg>
