<svg width="20" height="20" viewBox="0 0 20 20" fill="none" xmlns="http://www.w3.org/2000/svg">
<path d="M4.19141 8.69072C7.44576 5.43643 12.7221 5.43643 15.9764 8.69072" stroke="#474747" stroke-linecap="round" stroke-linejoin="round"/>
<path d="M18.333 5.49954C16.145 3.31136 13.1774 2.08203 10.083 2.08203C6.98861 2.08203 4.02097 3.31136 1.83301 5.49954" stroke="#474747" stroke-linecap="round" stroke-linejoin="round"/>
<path d="M6.54688 11.8808C7.48458 10.9429 8.75648 10.416 10.0827 10.416C11.4089 10.416 12.6808 10.9429 13.6185 11.8808" stroke="#474747" stroke-linecap="round" stroke-linejoin="round"/>
<path d="M15.9764 8.69072C12.7221 5.43643 7.44576 5.43643 4.19141 8.69072" stroke="#474747" stroke-linecap="round" stroke-linejoin="round"/>
<path d="M13.6195 11.8808C12.6818 10.9429 11.4099 10.416 10.0837 10.416C8.75746 10.416 7.48556 10.9429 6.54785 11.8808" stroke="#474747" stroke-linecap="round" stroke-linejoin="round"/>
<path fill-rule="evenodd" clip-rule="evenodd" d="M10.0827 17.9154C11.0032 17.9154 11.7493 17.1692 11.7493 16.2487C11.7493 15.3282 11.0032 14.582 10.0827 14.582C9.16221 14.582 8.41602 15.3282 8.41602 16.2487C8.41602 17.1692 9.16221 17.9154 10.0827 17.9154Z" stroke="#474747" stroke-linecap="round" stroke-linejoin="round"/>
</svg>
