<svg width="20" height="20" viewBox="0 0 20 20" fill="none" xmlns="http://www.w3.org/2000/svg">
<rect width="20" height="20" fill="#1A1616"/>
<path d="M10.8806 9.99947L14.8153 6.07065C14.9329 5.95303 14.9989 5.79351 14.9989 5.62717C14.9989 5.46083 14.9329 5.30131 14.8153 5.18369C14.6977 5.06608 14.5381 5 14.3718 5C14.2055 5 14.046 5.06608 13.9284 5.18369L10 9.11876L6.0716 5.18369C5.95399 5.06608 5.79449 5 5.62817 5C5.46185 5 5.30234 5.06608 5.18474 5.18369C5.06714 5.30131 5.00107 5.46083 5.00107 5.62717C5.00107 5.79351 5.06714 5.95303 5.18474 6.07065L9.11939 9.99947L5.18474 13.9283C5.1262 13.9864 5.07974 14.0554 5.04803 14.1316C5.01632 14.2077 5 14.2893 5 14.3718C5 14.4542 5.01632 14.5359 5.04803 14.612C5.07974 14.6881 5.1262 14.7572 5.18474 14.8152C5.2428 14.8738 5.31188 14.9203 5.38798 14.952C5.46409 14.9837 5.54572 15 5.62817 15C5.71062 15 5.79225 14.9837 5.86836 14.952C5.94446 14.9203 6.01354 14.8738 6.0716 14.8152L10 10.8802L13.9284 14.8152C13.9865 14.8738 14.0555 14.9203 14.1316 14.952C14.2078 14.9837 14.2894 15 14.3718 15C14.4543 15 14.5359 14.9837 14.612 14.952C14.6881 14.9203 14.7572 14.8738 14.8153 14.8152C14.8738 14.7572 14.9203 14.6881 14.952 14.612C14.9837 14.5359 15 14.4542 15 14.3718C15 14.2893 14.9837 14.2077 14.952 14.1316C14.9203 14.0554 14.8738 13.9864 14.8153 13.9283L10.8806 9.99947Z" fill="white"/>
</svg>
