<svg width="21" height="16" viewBox="0 0 21 16" fill="none" xmlns="http://www.w3.org/2000/svg">
<g clip-path="url(#clip0_1261_757)">
<path fill-rule="evenodd" clip-rule="evenodd" d="M9.27858 7.28201C10.5233 7.28201 11.6827 6.61413 12.3271 5.53223L12.7641 5.28306L13.705 5.82074C13.8142 5.8835 13.9483 5.8835 14.0575 5.82074L14.9984 5.28306L15.9393 5.82074C16.0486 5.8835 16.1826 5.8835 16.2918 5.82074L17.2332 5.28241L18.1746 5.82074C18.2306 5.85259 18.2912 5.86757 18.3508 5.86757C18.4527 5.86757 18.5528 5.82355 18.6225 5.74205L20.1877 3.91172C20.3052 3.77496 20.3061 3.57075 20.1913 3.43212L18.6372 1.55878C18.5713 1.47101 18.4676 1.41444 18.3508 1.41444H12.1013C11.4275 0.525496 10.3856 0 9.27858 0C7.31138 0 5.71045 1.63363 5.71045 3.64101C5.71045 5.64838 7.31138 7.28201 9.27858 7.28201ZM9.27858 0.736257C10.2131 0.736257 11.0897 1.20649 11.6221 1.99239C11.6892 2.09168 11.8002 2.15069 11.9186 2.15069H18.1845L19.4414 3.66442L18.2719 5.03202L17.4099 4.53931C17.358 4.50971 17.302 4.49473 17.2465 4.49276C17.2456 4.49276 17.2447 4.49276 17.2438 4.49266C17.2402 4.49257 17.2366 4.49248 17.233 4.49257C17.2294 4.49257 17.2259 4.49257 17.2223 4.49266C17.2214 4.49266 17.2204 4.49267 17.2195 4.49276C17.164 4.49473 17.1082 4.50971 17.0565 4.53931L16.1156 5.07699L15.1747 4.53931C15.0654 4.47655 14.9314 4.47655 14.8222 4.53931L13.8813 5.07699L12.9403 4.53931C12.8311 4.47655 12.6971 4.47655 12.5878 4.53931L11.8902 4.93835C11.8333 4.97114 11.7855 5.01891 11.7534 5.07699C11.2476 5.98279 10.2994 6.54575 9.27858 6.54575C7.70886 6.54575 6.43197 5.24279 6.43197 3.64101C6.43197 2.03923 7.70886 0.736257 9.27858 0.736257Z" fill="#474747"/>
<path fill-rule="evenodd" clip-rule="evenodd" d="M9.14835 5.08729C9.95524 5.08729 10.6116 4.41754 10.6107 3.5951C10.6107 2.77267 9.95524 2.10292 9.14835 2.10292C8.34146 2.10292 7.68604 2.77173 7.68604 3.5951C7.68604 4.41848 8.34146 5.08729 9.14835 5.08729ZM9.14835 2.83824C9.55776 2.83824 9.89007 3.17733 9.89007 3.5951C9.89007 4.01288 9.55776 4.35197 9.14835 4.35197C8.73894 4.35197 8.40664 4.01288 8.40664 3.5951C8.40664 3.17733 8.73894 2.83824 9.14835 2.83824Z" fill="#404040"/>
<path fill-rule="evenodd" clip-rule="evenodd" d="M20.8139 10.4303C20.4513 9.77557 19.5269 9.32688 18.0206 10.0304L14.22 11.411C14.2681 11.2584 14.294 11.0957 14.2936 10.9268C14.2936 10.0585 13.6006 9.35124 12.7487 9.35124L10.4602 9.35498H10.4547C10.0288 9.35498 9.66984 9.26506 9.29164 9.0646L7.85227 8.30024C7.37217 8.04546 6.89667 7.9265 6.35599 7.9265H4.53291V6.69472H0V15.4586H4.53291V14.2034H4.94232C5.27187 14.2034 5.54267 14.2549 5.85019 14.3758L9.41281 15.778C9.80295 15.9316 10.1628 16 10.5805 16H11.1716C11.5884 16 11.9473 15.9326 12.3356 15.7771C12.7083 15.631 13.2325 15.4371 13.8392 15.2122C16.0873 14.3795 19.1671 13.2395 20.3449 12.4218C20.9819 11.9797 21.1875 11.1048 20.8139 10.4303ZM0.720602 14.7223V7.4291H3.81231V8.25734C3.81111 8.26961 3.81047 8.28207 3.81047 8.29462C3.81047 8.30718 3.81111 8.31963 3.81231 8.3319V14.7223H0.720602ZM19.9409 11.8148C18.8376 12.581 15.6825 13.7491 13.5951 14.5219C12.9846 14.7476 12.4568 14.9425 12.0786 15.0914C11.7711 15.2122 11.5003 15.2638 11.1716 15.2638H10.5805C10.2509 15.2638 9.98011 15.2122 9.67259 15.0914L6.10997 13.6892C5.71984 13.5355 5.36 13.4672 4.94232 13.4672H4.53291V8.66275H6.35599C6.78284 8.66275 7.14177 8.75268 7.51997 8.95313L8.95934 9.71749C9.43943 9.97228 9.91494 10.0912 10.4556 10.0912H10.462L12.7505 10.0875C13.2049 10.0875 13.5739 10.4641 13.5739 10.9277C13.5739 11.3914 13.234 11.7375 12.8049 11.7661H8.68303C8.48383 11.7661 8.32227 11.9309 8.32227 12.1342C8.32227 12.3375 8.48383 12.5023 8.68303 12.5023H12.714C12.726 12.5036 12.7382 12.5042 12.7505 12.5042C12.7756 12.5042 12.8005 12.5036 12.8253 12.5023H13.305C13.3463 12.5023 13.3876 12.4948 13.4262 12.4808L18.2785 10.7188C18.2886 10.7151 18.2987 10.7113 18.3088 10.7067C19.3801 10.2036 19.9813 10.4219 20.1879 10.7938C20.3751 11.1319 20.2641 11.59 19.9409 11.8148Z" fill="#474747"/>
</g>
<defs>
<clipPath id="clip0_1261_757">
<rect width="21" height="16" fill="white"/>
</clipPath>
</defs>
</svg>
