<svg width="8" height="8" viewBox="0 0 8 8" fill="none" xmlns="http://www.w3.org/2000/svg">
<path d="M3.94092 6.65642V7.6043" stroke="#474747" stroke-width="0.584058" stroke-linecap="round" stroke-linejoin="round"/>
<path d="M4.80976 5.60846C4.80976 6.08826 4.4208 6.4772 3.941 6.4772C3.46121 6.4772 3.07227 6.08825 3.07227 5.60846C3.07227 5.12867 3.46121 4.73972 3.941 4.73972C4.4208 4.73972 4.80976 5.12867 4.80976 5.60846Z" stroke="#474747" stroke-width="0.584058" stroke-linecap="round" stroke-linejoin="round"/>
<path d="M3.94092 0.29203V3.22337" stroke="#474747" stroke-width="0.584058" stroke-linecap="round" stroke-linejoin="round"/>
<path d="M1.16077 3.8911V7.6043" stroke="#474747" stroke-width="0.584058" stroke-linecap="round" stroke-linejoin="round"/>
<path d="M2.02947 2.84314C2.02947 3.32294 1.64052 3.71188 1.16073 3.71188C0.68094 3.71188 0.291992 3.32294 0.291992 2.84314C0.291992 2.36335 0.68094 1.9744 1.16073 1.9744C1.64052 1.9744 2.02947 2.36335 2.02947 2.84314Z" stroke="#474747" stroke-width="0.584058" stroke-linecap="round" stroke-linejoin="round"/>
<path d="M1.16077 0.29203V0.852948" stroke="#474747" stroke-width="0.584058" stroke-linecap="round" stroke-linejoin="round"/>
<path d="M6.72266 3.8911V7.6043" stroke="#474747" stroke-width="0.584058" stroke-linecap="round" stroke-linejoin="round"/>
<path d="M7.5915 2.84314C7.5915 3.32294 7.20253 3.71188 6.72274 3.71188C6.24295 3.71188 5.854 3.32294 5.854 2.84314C5.854 2.36335 6.24295 1.9744 6.72274 1.9744C7.20253 1.9744 7.5915 2.36335 7.5915 2.84314Z" stroke="#474747" stroke-width="0.584058" stroke-linecap="round" stroke-linejoin="round"/>
<path d="M6.72266 0.29203V0.852948" stroke="#474747" stroke-width="0.584058" stroke-linecap="round" stroke-linejoin="round"/>
</svg>
