<svg width="20" height="20" viewBox="0 0 20 20" fill="none" xmlns="http://www.w3.org/2000/svg">
<path d="M14.1667 17.7084H5.83335C2.79169 17.7084 1.04169 15.9584 1.04169 12.9167V7.08335C1.04169 4.04169 2.79169 2.29169 5.83335 2.29169H14.1667C17.2084 2.29169 18.9584 4.04169 18.9584 7.08335V12.9167C18.9584 15.9584 17.2084 17.7084 14.1667 17.7084ZM5.83335 3.54169C3.45002 3.54169 2.29169 4.70002 2.29169 7.08335V12.9167C2.29169 15.3 3.45002 16.4584 5.83335 16.4584H14.1667C16.55 16.4584 17.7084 15.3 17.7084 12.9167V7.08335C17.7084 4.70002 16.55 3.54169 14.1667 3.54169H5.83335Z" fill="#474747"/>
<path d="M10 13.125C8.275 13.125 6.875 11.725 6.875 10C6.875 8.275 8.275 6.875 10 6.875C11.725 6.875 13.125 8.275 13.125 10C13.125 11.725 11.725 13.125 10 13.125ZM10 8.125C8.96667 8.125 8.125 8.96667 8.125 10C8.125 11.0333 8.96667 11.875 10 11.875C11.0333 11.875 11.875 11.0333 11.875 10C11.875 8.96667 11.0333 8.125 10 8.125Z" fill="#474747"/>
<path d="M4.58331 12.7084C4.24165 12.7084 3.95831 12.425 3.95831 12.0834V7.91669C3.95831 7.57502 4.24165 7.29169 4.58331 7.29169C4.92498 7.29169 5.20831 7.57502 5.20831 7.91669V12.0834C5.20831 12.425 4.92498 12.7084 4.58331 12.7084Z" fill="#474747"/>
<path d="M15.4167 12.7084C15.075 12.7084 14.7917 12.425 14.7917 12.0834V7.91669C14.7917 7.57502 15.075 7.29169 15.4167 7.29169C15.7584 7.29169 16.0417 7.57502 16.0417 7.91669V12.0834C16.0417 12.425 15.7584 12.7084 15.4167 12.7084Z" fill="#474747"/>
</svg>
