<svg width="18" height="18" viewBox="0 0 18 18" fill="none" xmlns="http://www.w3.org/2000/svg">
<path d="M16.3977 16.8717L16.3989 0.704208C16.3588 0.382715 16.1374 0.141902 15.8256 0.0312743L2.39549 0.000103001C2.00261 -0.00662022 1.60144 0.316706 1.59761 0.702374L1.60399 16.6609L1.50513 16.8717H0.3571C0.292681 16.8717 0.0892239 17.0545 0.0541458 17.1315C-0.101477 17.475 0.0898628 17.904 0.480831 17.9749L17.3869 18C17.8384 17.9847 18.128 17.5385 17.9437 17.1315C17.9086 17.0545 17.7058 16.8717 17.6407 16.8717H16.397H16.3977ZM2.81261 1.16383H15.1221V16.8717H11.1996C11.0619 16.791 11.169 16.6798 11.1709 16.5392C11.1818 15.8535 11.2647 14.6592 11.1639 14.0333C11.1091 13.6929 10.8514 13.4765 10.5012 13.4459C9.4712 13.3555 8.2951 13.5162 7.24912 13.452C7.09158 13.4337 6.70317 13.8102 6.70317 13.9068V16.8711H2.90828L2.81261 16.7794V1.16383ZM7.91498 14.6103H9.95593C9.97315 14.6549 9.89215 14.6836 9.89215 14.702V16.7189C9.89215 16.7342 9.94381 16.755 9.94189 16.78L9.86026 16.8717H7.91498V14.6103Z" fill="#474747"/>
<path d="M12.8432 2.95099C12.4465 2.88253 10.6505 2.87886 10.2468 2.93998C9.9757 2.98155 9.73142 3.25598 9.69953 3.51574C9.63767 4.01876 9.62874 5.59505 9.69826 6.08706C9.74099 6.39022 10.005 6.57114 10.3054 6.60536C10.8259 6.66465 12.275 6.66465 12.796 6.60536C13.1041 6.57052 13.3649 6.32238 13.4019 6.02472C13.4606 5.54921 13.4721 3.91302 13.3968 3.45951C13.356 3.21441 13.0964 2.99499 12.8432 2.95099ZM10.7851 4.03648H12.3158C12.333 4.0811 12.252 4.10983 12.252 4.12816V5.56449H10.7851V4.03648Z" fill="#474747"/>
<path d="M12.7788 8.08508C12.34 8.01418 10.8272 8.01724 10.3762 8.07592C10.0369 8.11992 9.74163 8.30512 9.69953 8.64983C9.6332 9.1883 9.6332 10.6815 9.69953 11.2199C9.73525 11.5084 9.93615 11.7052 10.2417 11.7395C10.778 11.8 12.2596 11.8006 12.796 11.7395C13.1041 11.7046 13.3649 11.4565 13.4019 11.1588C13.4638 10.6564 13.467 9.1498 13.3949 8.65717C13.3464 8.32528 13.1156 8.14009 12.7794 8.08569L12.7788 8.08508ZM10.7851 9.17058H12.252V10.6986H10.7851V9.17058Z" fill="#474747"/>
<path d="M7.6133 2.95037C7.23764 2.87764 5.48753 2.88681 5.08253 2.94182C4.76491 2.98521 4.50787 3.2028 4.46961 3.51574C4.40455 4.04015 4.40455 5.4997 4.46961 6.02411C4.50596 6.31932 4.76491 6.5693 5.07551 6.60475C5.59851 6.66404 7.04311 6.66404 7.56547 6.60475C7.87352 6.56991 8.13438 6.32176 8.17137 6.02411C8.23005 5.54921 8.23962 3.97719 8.16563 3.52063C8.1229 3.25659 7.88819 3.00355 7.6133 2.94976V2.95037ZM5.55513 4.03648H7.08584C6.95255 4.51872 7.02206 5.07247 7.08584 5.56449H5.55513V4.03648Z" fill="#474747"/>
<path d="M7.54888 8.08508C7.09477 8.01235 5.6795 8.01907 5.20435 8.07041C4.79552 8.11442 4.52127 8.30023 4.46961 8.71095C4.40583 9.21764 4.41029 10.5855 4.47088 11.0959C4.51042 11.4277 4.71197 11.6979 5.07551 11.7388C5.59787 11.7981 7.04375 11.7981 7.56547 11.7388C7.92646 11.6979 8.12992 11.4296 8.1701 11.0959C8.22686 10.6185 8.23962 9.11129 8.16627 8.65533C8.11525 8.34056 7.86651 8.13642 7.54888 8.08569V8.08508ZM5.55513 9.17058H6.99017C7.05523 9.21642 7.05906 9.22375 7.0597 9.29526C7.06097 9.75428 6.93788 10.2457 7.08584 10.6986H5.55513V9.17058Z" fill="#474747"/>
</svg>
